<svg width="28" height="32" viewBox="0 0 28 32" fill="none" xmlns="http://www.w3.org/2000/svg">
<path d="M24.8889 3.11111H23.3333V0H20.2222V3.11111H7.77778V0H4.66667V3.11111H3.11111C1.38444 3.11111 0.0155555 4.51111 0.0155555 6.22222L0 28C0 29.7111 1.38444 31.1111 3.11111 31.1111H24.8889C26.6 31.1111 28 29.7111 28 28V6.22222C28 4.51111 26.6 3.11111 24.8889 3.11111ZM24.8889 28H3.11111V12.4444H24.8889V28ZM9.33333 18.6667H6.22222V15.5556H9.33333V18.6667ZM15.5556 18.6667H12.4444V15.5556H15.5556V18.6667ZM21.7778 18.6667H18.6667V15.5556H21.7778V18.6667ZM9.33333 24.8889H6.22222V21.7778H9.33333V24.8889ZM15.5556 24.8889H12.4444V21.7778H15.5556V24.8889ZM21.7778 24.8889H18.6667V21.7778H21.7778V24.8889Z" fill="black"/>
</svg>
