<svg width="24" height="25" viewBox="0 0 24 25" fill="none" xmlns="http://www.w3.org/2000/svg">
<path d="M10.7289 23.8095H2.3842C1.06097 23.8095 0 22.7381 0 21.4286L0.011921 4.7619C0.011921 3.45238 1.06097 2.38095 2.3842 2.38095H3.57631V0H5.96051V2.38095H15.4973V0H17.8815V2.38095H19.0736C20.3849 2.38095 21.4578 3.45238 21.4578 4.7619V11.9048H19.0736V9.52381H2.3842V21.4286H10.7289V23.8095ZM22.8049 17.8452L23.6513 17C24.1162 16.5357 24.1162 15.7857 23.6513 15.3214L22.8049 14.4762C22.34 14.0119 21.589 14.0119 21.1241 14.4762L20.2777 15.3214L22.8049 17.8452ZM21.9585 18.6905L15.6404 25H13.1131V22.4762L19.4313 16.1667L21.9585 18.6905Z" fill="black"/>
</svg>
