<svg width="27" height="26" viewBox="0 0 27 26" fill="none" xmlns="http://www.w3.org/2000/svg">
<path d="M19.2967 16.3522H18.0772L17.6449 15.9508C19.1578 14.2561 20.0686 12.056 20.0686 9.66266C20.0686 4.3259 15.5763 0 10.0343 0C4.49228 0 0 4.3259 0 9.66266C0 14.9994 4.49228 19.3253 10.0343 19.3253C12.5197 19.3253 14.8045 18.4483 16.5643 16.9914L16.9811 17.4077V18.582L24.6998 26L27 23.785L19.2967 16.3522ZM10.0343 16.3522C6.19039 16.3522 3.08748 13.3642 3.08748 9.66266C3.08748 5.96112 6.19039 2.97313 10.0343 2.97313C13.8782 2.97313 16.9811 5.96112 16.9811 9.66266C16.9811 13.3642 13.8782 16.3522 10.0343 16.3522Z" fill="#E2A9FF"/>
</svg>
